<?xml version="1.0" encoding="UTF-8" standalone="no"?>
<svg
   viewBox="0 0 200 200"
   version="1.1"
   id="svg8"
   sodipodi:docname="icij.svg"
   inkscape:version="1.1.2 (0a00cf5339, 2022-02-04)"
   width="200"
   height="200"
   xmlns:inkscape="http://www.inkscape.org/namespaces/inkscape"
   xmlns:sodipodi="http://sodipodi.sourceforge.net/DTD/sodipodi-0.dtd"
   xmlns="http://www.w3.org/2000/svg"
   xmlns:svg="http://www.w3.org/2000/svg">
  <defs
     id="defs12" />
  <sodipodi:namedview
     id="namedview10"
     pagecolor="#ffffff"
     bordercolor="#666666"
     borderopacity="1.0"
     inkscape:pageshadow="2"
     inkscape:pageopacity="0.0"
     inkscape:pagecheckerboard="0"
     showgrid="false"
     inkscape:zoom="2.5420489"
     inkscape:cx="78.676693"
     inkscape:cy="100.11609"
     inkscape:window-width="1920"
     inkscape:window-height="1016"
     inkscape:window-x="0"
     inkscape:window-y="0"
     inkscape:window-maximized="1"
     inkscape:current-layer="svg8" />
  <path
     d="M 128.421,200 H 71.579 l 28.42,-46.427 z"
     fill="#ff0000"
     id="path2" />
  <path
     d="M 146.195,19.138 C 133.856,6.793 117.452,0 100,0 82.548,0 66.143,6.793 53.804,19.138 41.459,31.477 34.666,47.882 34.666,65.334 c 0,17.451 6.793,33.856 19.138,46.195 12.339,12.339 28.744,19.138 46.196,19.138 17.452,0 33.856,-6.793 46.195,-19.138 12.339,-12.339 19.139,-28.744 19.139,-46.195 0,-17.452 -6.793,-33.857 -19.138,-46.196 z m 3.397,23.028 a 54.35,54.35 0 0 1 4.863,17.86 h -19.241 c -0.262,-6.173 -0.968,-12.175 -2.094,-17.86 h 16.478 z M 138.69,26.65 a 54.792,54.792 0 0 1 4.346,4.894 H 130.404 C 129.15,27.605 127.671,23.91 125.973,20.52 a 61.475,61.475 0 0 0 -2.6,-4.681 c 5.619,2.654 10.793,6.288 15.316,10.81 z m -14.11,33.376 h -19.266 v -17.86 h 16.965 c 1.241,5.6 2.02,11.614 2.3,17.86 z m -8.109,-34.758 a 63.605,63.605 0 0 1 2.71,6.276 h -13.867 v -19.48 c 4.03,2.174 7.92,6.721 11.157,13.204 z m -32.943,0 c 3.238,-6.477 7.134,-11.03 11.158,-13.203 V 31.538 H 80.819 a 62.794,62.794 0 0 1 2.709,-6.276 z m 11.158,16.898 v 17.86 H 75.42 c 0.286,-6.246 1.065,-12.26 2.3,-17.86 z M 61.31,26.65 a 54.905,54.905 0 0 1 15.314,-10.817 59.443,59.443 0 0 0 -2.6,4.68 c -1.698,3.391 -3.177,7.086 -4.43,11.025 H 56.962 a 55.764,55.764 0 0 1 4.347,-4.894 z m 5.57,15.516 c -1.127,5.685 -1.833,11.687 -2.095,17.86 H 45.544 a 54.201,54.201 0 0 1 4.863,-17.86 H 66.885 Z M 50.4,88.507 a 54.35,54.35 0 0 1 -4.863,-17.86 h 19.241 c 0.262,6.173 0.968,12.181 2.094,17.86 H 50.395 Z m 10.902,15.517 A 54.793,54.793 0 0 1 56.956,99.13 h 12.631 c 1.254,3.938 2.733,7.633 4.432,11.023 a 61.476,61.476 0 0 0 2.599,4.681 54.569,54.569 0 0 1 -15.316,-10.816 z m 14.11,-33.376 h 19.266 v 17.86 H 77.714 c -1.241,-5.6 -2.02,-11.615 -2.3,-17.86 z m 8.109,34.757 a 63.605,63.605 0 0 1 -2.71,-6.275 h 13.867 v 19.472 c -4.03,-2.173 -7.919,-6.72 -11.157,-13.203 z m 32.943,0 c -3.238,6.477 -7.134,11.03 -11.157,13.203 V 99.136 h 13.867 a 62.793,62.793 0 0 1 -2.709,6.275 z M 105.308,88.507 v -17.86 h 19.265 c -0.286,6.246 -1.065,12.26 -2.3,17.86 z m 33.376,15.517 a 54.759,54.759 0 0 1 -15.316,10.81 59.444,59.444 0 0 0 2.6,-4.68 c 1.698,-3.391 3.177,-7.086 4.43,-11.024 h 12.632 a 55.763,55.763 0 0 1 -4.346,4.894 z m -5.57,-15.517 c 1.126,-5.685 1.832,-11.687 2.094,-17.86 h 19.241 a 54.201,54.201 0 0 1 -4.863,17.86 h -16.478 z"
     fill="#ff0000"
     id="path4" />
  <path
     d="m 173.5755,136.809 v 10.622 H 26.4245 v -10.622 z"
     fill="#999999"
     id="path6" />
</svg>
