<?xml version="1.0" encoding="UTF-8" standalone="no"?>
<svg
   xmlns:dc="http://purl.org/dc/elements/1.1/"
   xmlns:cc="http://creativecommons.org/ns#"
   xmlns:rdf="http://www.w3.org/1999/02/22-rdf-syntax-ns#"
   xmlns:svg="http://www.w3.org/2000/svg"
   xmlns="http://www.w3.org/2000/svg"
   xmlns:sodipodi="http://sodipodi.sourceforge.net/DTD/sodipodi-0.dtd"
   xmlns:inkscape="http://www.inkscape.org/namespaces/inkscape"
   width="38.507809mm"
   height="38.512398mm"
   viewBox="0 0 136.44499 136.46125"
   version="1.1"
   id="svg2"
   inkscape:version="0.91 r13725"
   sodipodi:docname="icij-white-bordered.svg">
  <metadata
     id="metadata14">
    <rdf:RDF>
      <cc:Work
         rdf:about="">
        <dc:format>image/svg+xml</dc:format>
        <dc:type
           rdf:resource="http://purl.org/dc/dcmitype/StillImage" />
        <dc:title></dc:title>
      </cc:Work>
    </rdf:RDF>
  </metadata>
  <defs
     id="defs12" />
  <sodipodi:namedview
     pagecolor="#ee66f3"
     bordercolor="#666666"
     borderopacity="1"
     objecttolerance="10"
     gridtolerance="10"
     guidetolerance="10"
     inkscape:pageopacity="0"
     inkscape:pageshadow="2"
     inkscape:window-width="1920"
     inkscape:window-height="1056"
     id="namedview10"
     showgrid="false"
     inkscape:zoom="3.4588573"
     inkscape:cx="71.714149"
     inkscape:cy="54.626157"
     inkscape:window-x="0"
     inkscape:window-y="24"
     inkscape:window-maximized="1"
     inkscape:current-layer="svg2" />
  <g
     transform="translate(468.2225,-561.27444)"
     id="g4"
     style="fill:#ffffff">
    <path
       id="path120"
       style="fill:#ffffff"
       d="m -445.71225,656.85431 0,-58.52 10.05075,0 0,58.52 -10.05075,0"
       inkscape:connector-curvature="0" />
    <path
       id="path122"
       style="fill:#ffffff"
       d="m -405.10388,617.86844 0,-4.539 c 0,-4.94388 -2.2705,-7.05125 -4.86425,-7.05125 -4.05075,0 -5.34912,2.10737 -5.34912,6.48437 l 0,29.6655 c 0,4.376 1.29837,6.48288 5.34912,6.48288 3.648,0 4.86425,-2.10688 4.86425,-5.916 l 0,-7.05125 10.05038,0 0,6.72662 c 0,8.267 -4.86338,14.99463 -14.91463,14.99463 -10.53662,0 -15.39987,-6.72763 -15.39987,-14.99463 l 0,-30.15 c 0,-8.2675 4.86325,-14.996 15.39987,-14.996 10.05125,0 14.91463,7.29438 14.91463,16.04825 l 0,4.29588 -10.05038,0"
       inkscape:connector-curvature="0" />
    <path
       id="path124"
       style="fill:#ffffff"
       d="m -384.27225,656.85431 0,-58.52 10.04925,0 0,58.52 -10.04925,0"
       inkscape:connector-curvature="0" />
    <path
       id="path126"
       style="fill:#ffffff"
       d="m -368.54813,648.91094 2.10788,0 c 3.89063,0 5.268,-1.621 5.268,-4.86175 l 0,-45.71488 10.04988,0 0,46.84863 c 0,7.457 -2.99813,12.482 -14.10263,12.482 l -3.32313,0 0,-8.754"
       inkscape:connector-curvature="0" />
  </g>
  <rect
     style="opacity:1;fill:none;fill-opacity:1;stroke:#ffffff;stroke-width:2.14073396;stroke-miterlimit:4;stroke-dasharray:none;stroke-opacity:1"
     id="rect4142"
     width="134.30426"
     height="134.30426"
     x="1.0703655"
     y="1.0784882" />
</svg>
