<?xml version="1.0" encoding="UTF-8" standalone="no"?>
<svg
   xmlns:dc="http://purl.org/dc/elements/1.1/"
   xmlns:cc="http://creativecommons.org/ns#"
   xmlns:rdf="http://www.w3.org/1999/02/22-rdf-syntax-ns#"
   xmlns:svg="http://www.w3.org/2000/svg"
   xmlns="http://www.w3.org/2000/svg"
   xmlns:sodipodi="http://sodipodi.sourceforge.net/DTD/sodipodi-0.dtd"
   xmlns:inkscape="http://www.inkscape.org/namespaces/inkscape"
   id="Layer_1"
   data-name="Layer 1"
   viewBox="0 0 499.99998 499.99999"
   version="1.1"
   sodipodi:docname="icij-white-bordered.svg"
   width="499.99997"
   height="500"
   inkscape:version="0.92.5 (2060ec1f9f, 2020-04-08)">
  <metadata
     id="metadata119">
    <rdf:RDF>
      <cc:Work
         rdf:about="">
        <dc:format>image/svg+xml</dc:format>
        <dc:type
           rdf:resource="http://purl.org/dc/dcmitype/StillImage" />
        <dc:title></dc:title>
      </cc:Work>
    </rdf:RDF>
  </metadata>
  <sodipodi:namedview
     pagecolor="#ffffff"
     bordercolor="#666666"
     borderopacity="1"
     objecttolerance="10"
     gridtolerance="10"
     guidetolerance="10"
     inkscape:pageopacity="0"
     inkscape:pageshadow="2"
     inkscape:window-width="1920"
     inkscape:window-height="1016"
     id="namedview117"
     showgrid="false"
     fit-margin-top="0"
     fit-margin-left="0"
     fit-margin-right="0"
     fit-margin-bottom="0"
     inkscape:zoom="0.47916614"
     inkscape:cx="290.98165"
     inkscape:cy="513.33474"
     inkscape:window-x="0"
     inkscape:window-y="27"
     inkscape:window-maximized="1"
     inkscape:current-layer="Layer_3" />
  <defs
     id="defs4">
    <style
       id="style2">.cls-1{fill:#852308;}.cls-2{fill:#fff;}.cls-3{fill:#1e1e1e;}</style>
  </defs>
  <g
     id="Layer_3"
     data-name="Layer 3"
     transform="translate(-87.384004,-383.88604)">
    <g
       id="ICIJ"
       style="fill:#ffffff"
       transform="matrix(0.62334657,0,0,0.62334656,32.913488,332.91873)">
      <path
         class="cls-2"
         d="m 443.53,540.1 h 69.21 a 20.92,20.92 0 0 1 0.39,2.84 c 0,17.71 0.67,35.46 -0.38,53.11 -1.9,32 -13.44,59.52 -40.8,78.47 -12.64,8.75 -26.86,13.62 -42,15.68 -20.79,2.83 -41.42,2 -61.44,-4.62 -36,-11.94 -56.26,-37.69 -63.14,-74.35 a 149.72,149.72 0 0 1 -2.3,-27 q -0.27,-102.54 -0.1,-205.08 c 0,-18.59 2.6,-36.7 10.67,-53.62 14.35,-30.07 39.06,-46.2 71.24,-51.71 17.87,-3.06 35.83,-3.23 53.53,1.19 38.38,9.57 60.7,35.15 70.21,72.5 2.71,10.66 3.59,21.89 4.31,32.93 0.72,11.04 0.16,21.9 0.16,33.15 h -69.57 c 0,-1.64 0,-3.22 0,-4.8 -0.24,-12.89 -0.25,-25.79 -0.88,-38.67 a 50.12,50.12 0 0 0 -3.05,-13.57 c -6.35,-18.42 -20,-26.33 -39.13,-23 -15.84,2.74 -24.29,11.69 -26.54,28.57 a 127.78,127.78 0 0 0 -1.05,16.82 c -0.07,68.5 -0.16,137 0.1,205.5 a 109,109 0 0 0 3.25,25.56 c 2.61,10.6 10.21,17.42 21,19.06 a 78.08,78.08 0 0 0 22.84,0.28 c 13.2,-2 21.68,-12.17 22.51,-27.62 1,-18.62 0.71,-37.3 1,-56 0,-1.77 0,-3.52 0,-5.62"
         id="path8"
         inkscape:connector-curvature="0"
         style="fill:#ffffff" />
      <path
         class="cls-2"
         d="m 663.88,691.63 v -60.89 c 1.69,-0.09 3.26,-0.2 4.84,-0.26 7,-0.28 14,0 20.95,-0.92 15.82,-2 24.29,-11.68 25,-27.66 0.15,-3.15 0.14,-6.31 0.14,-9.47 q 0,-154.62 0,-309.25 v -5.57 l 69.88,0.07 c 0,0 0,220.26 -0.12,328.56 0,14.48 -1.69,28.76 -7.45,42.27 -9,21 -25.81,32.37 -47.12,38.17 -14.28,3.89 -28.9,4.92 -43.62,4.94 h -22.5"
         id="path10"
         inkscape:connector-curvature="0"
         style="fill:#ffffff" />
      <rect
         class="cls-2"
         x="192.85001"
         y="277.57001"
         width="69.300003"
         height="408.16"
         id="rect12"
         style="fill:#ffffff" />
      <rect
         class="cls-2"
         x="555.20001"
         y="277.51999"
         width="69.160004"
         height="408.19"
         id="rect14"
         style="fill:#ffffff" />
    </g>
    <rect
       style="fill:none;stroke:#ffffff;stroke-width:12.46693134;stroke-miterlimit:4;stroke-dasharray:none;stroke-opacity:1"
       id="rect237"
       width="487.53305"
       height="487.53308"
       x="93.61747"
       y="390.11951" />
  </g>
</svg>
