<svg xml:space="preserve" xmlns="http://www.w3.org/2000/svg" viewBox="0 0 1047.01 200">
  <path d="m45.153 200 28.423-46.424L101.999 200Z" fill="red"/>
  <path d="M106.691 88.505c1.127-5.682 1.835-11.686 2.094-17.86h19.244a54.281 54.281 0 0 1-4.861 17.86Zm5.571 15.516a54.75 54.75 0 0 1-15.316 10.814 59.929 59.929 0 0 0 2.602-4.683c1.695-3.392 3.177-7.088 4.43-11.025h12.633a55.793 55.793 0 0 1-4.348 4.894M78.887 88.505v-17.86h19.267c-.284 6.244-1.064 12.261-2.304 17.86Zm11.159 16.896c-3.238 6.478-7.132 11.03-11.159 13.2V99.127h13.867a63.187 63.187 0 0 1-2.708 6.274m-32.94 0a63.163 63.163 0 0 1-2.708-6.274h13.866v19.474c-4.028-2.17-7.92-6.722-11.159-13.2m-8.107-34.756h19.266v17.86H51.303c-1.24-5.599-2.021-11.616-2.304-17.86m-14.11 33.376a55.755 55.755 0 0 1-4.347-4.894h12.631c1.254 3.937 2.737 7.633 4.432 11.025a60.067 60.067 0 0 0 2.602 4.683 54.74 54.74 0 0 1-15.317-10.814M23.984 88.505a54.282 54.282 0 0 1-4.861-17.86h19.244c.26 6.174.967 12.178 2.094 17.86ZM40.46 42.163c-1.126 5.682-1.834 11.686-2.093 17.86H19.123a54.282 54.282 0 0 1 4.861-17.86Zm-5.57-15.516a54.747 54.747 0 0 1 15.316-10.814 59.974 59.974 0 0 0-2.602 4.683c-1.695 3.392-3.177 7.089-4.43 11.025H30.541a55.67 55.67 0 0 1 4.348-4.894m33.375 15.516v17.86H48.999c.283-6.244 1.063-12.261 2.303-17.86ZM57.106 25.267c3.239-6.478 7.131-11.03 11.16-13.2V31.54H54.398a63.109 63.109 0 0 1 2.707-6.274m32.94 0a63.113 63.113 0 0 1 2.708 6.274H78.888V12.066c4.027 2.171 7.92 6.723 11.159 13.201m8.108 34.755H78.888v-17.86H95.85c1.24 5.6 2.021 11.617 2.304 17.86m14.109-33.375a55.867 55.867 0 0 1 4.348 4.894h-12.633c-1.253-3.936-2.735-7.633-4.43-11.025a59.782 59.782 0 0 0-2.602-4.683 54.77 54.77 0 0 1 15.317 10.814m10.906 15.516a54.306 54.306 0 0 1 4.861 17.86h-19.244c-.26-6.174-.967-12.178-2.094-17.86Zm-3.394-23.027C107.434 6.796 91.027 0 73.575 0c-17.45 0-33.857 6.796-46.197 19.136-12.34 12.34-19.136 28.747-19.136 46.198 0 17.452 6.796 33.858 19.136 46.198 12.34 12.34 28.746 19.136 46.198 19.136s33.858-6.796 46.198-19.136c12.34-12.34 19.136-28.746 19.136-46.198 0-17.451-6.796-33.858-19.136-46.198" fill="red"/>
  <path d="M0 136.811H147.15v10.622H0Z" fill="#999"/>
  <path d="M203.5 25.928h12.66v65.517H203.5zm16.618 65.517V25.928h13.5l6.026 31.348V25.928h12.661v65.517h-12.814l-6.559-32.796v32.796Zm42.955 0V38.513h-7.78V25.928h28.678v12.585h-7.78v52.932Zm23.887 0V25.928h26.237V38.59h-12.89v12.737h12.357v12.357h-12.357v15.024h13.73v12.738Zm46.853-41.262c1.83 0 2.745-1.984 2.745-5.95 0-1.728-.075-3.025-.228-3.89-.152-.864-.433-1.46-.839-1.792-.408-.33-.992-.495-1.755-.495h-3.05v12.127Zm-16.475-24.255h20.136c3.204 0 5.682.724 7.437 2.174 1.753 1.45 2.936 3.484 3.546 6.102.61 2.619.916 5.962.916 10.03 0 3.712-.485 6.61-1.45 8.694-.966 2.086-2.644 3.535-5.034 4.348 1.984.408 3.42 1.4 4.309 2.974.89 1.577 1.336 3.713 1.336 6.408l-.153 24.787h-12.814V65.818c0-1.83-.357-2.999-1.068-3.508-.712-.508-2.01-.763-3.89-.763v29.898h-13.271zm35.374 65.517V25.928h13.5l6.026 31.348V25.928H384.9v65.517h-12.815l-6.56-32.796v32.796Zm49.88-21.051h5.95l-2.898-33.33h-.61Zm-14.491 21.051 6.33-65.517h22.195l6.255 65.517h-12.433l-.915-10.601H401.6l-.762 10.601zm42.047 0V38.513h-7.78V25.928h28.678v12.585h-7.78v52.932Zm23.613-65.517h12.661v65.517h-12.66zm34.855 52.551c.407-1.017.611-2.441.611-4.27V42.173c0-1.423-.19-2.58-.572-3.47-.382-.89-1.158-1.335-2.327-1.335-2.187 0-3.279 1.653-3.279 4.957v31.958c0 1.881.228 3.306.687 4.272.457.966 1.296 1.448 2.517 1.448 1.168 0 1.956-.507 2.363-1.525m-14.414 8.733c-2.747-3.228-4.12-7.767-4.12-13.614V42.403c0-5.644 1.373-9.902 4.12-12.776 2.745-2.872 6.761-4.31 12.05-4.31 5.288 0 9.305 1.438 12.052 4.31 2.745 2.873 4.118 7.132 4.118 12.776v31.195c0 5.898-1.373 10.449-4.118 13.653-2.747 3.203-6.764 4.805-12.051 4.805-5.29 0-9.306-1.614-12.051-4.844m32.032 4.233V25.928h13.5l6.026 31.348V25.928h12.661v65.517h-12.814l-6.559-32.796v32.796Zm49.88-21.051h5.95l-2.898-33.33h-.61Zm-14.491 21.051 6.33-65.517h22.195l6.254 65.517H563.97l-.915-10.601h-7.932l-.763 10.601zm37.951 0V25.928h13.118V80.31h13.501v11.136Zm51.901-3.889c-2.873-3-4.308-7.119-4.308-12.356V44.996c0-6.508 1.296-11.414 3.89-14.72 2.592-3.305 6.659-4.958 12.202-4.958 4.83 0 8.72 1.323 11.67 3.966 2.949 2.645 4.424 6.458 4.424 11.44v11.289H646.31v-9.687c0-1.88-.23-3.176-.687-3.89-.458-.71-1.246-1.067-2.365-1.067-1.17 0-1.97.408-2.402 1.22-.433.814-.649 2.01-.649 3.585v32.873c0 1.73.255 2.988.764 3.775.507.79 1.27 1.183 2.287 1.183 2.033 0 3.052-1.652 3.052-4.958V63.225h13.194v12.356c0 10.983-5.517 16.475-16.55 16.475-4.78 0-8.607-1.5-11.48-4.5m49.623-9.077c.407-1.017.61-2.441.61-4.27V42.173c0-1.423-.19-2.58-.571-3.47-.382-.89-1.158-1.335-2.327-1.335-2.187 0-3.279 1.653-3.279 4.957v31.958c0 1.881.228 3.306.687 4.272.457.966 1.296 1.448 2.517 1.448 1.168 0 1.955-.507 2.363-1.525m-14.414 8.733c-2.747-3.228-4.12-7.767-4.12-13.614V42.403c0-5.644 1.373-9.902 4.12-12.776 2.745-2.872 6.76-4.31 12.05-4.31 5.288 0 9.305 1.438 12.051 4.31 2.746 2.873 4.118 7.132 4.118 12.776v31.195c0 5.898-1.372 10.449-4.118 13.653-2.746 3.203-6.762 4.805-12.05 4.805-5.29 0-9.306-1.614-12.051-4.844m32.033 4.233V25.928h13.5l6.025 31.348V25.928h12.661v65.517H718.09l-6.56-32.796v32.796Zm39.524-3.814c-2.645-2.947-3.967-7.703-3.967-14.262v-6.406h12.89v8.16c0 3.255 1.04 4.882 3.127 4.882 1.169 0 1.983-.343 2.44-1.03.459-.687.687-1.843.687-3.47 0-2.136-.256-3.902-.763-5.301-.508-1.398-1.157-2.567-1.945-3.509-.789-.94-2.2-2.402-4.232-4.385l-5.645-5.645c-4.373-4.27-6.56-9-6.56-14.186 0-5.592 1.284-9.85 3.851-12.776 2.568-2.922 6.319-4.385 11.25-4.385 5.9 0 10.145 1.563 12.738 4.691 2.594 3.127 3.89 8.021 3.89 14.682h-13.347l-.076-4.5c0-.864-.242-1.55-.725-2.06-.483-.507-1.156-.762-2.02-.762-1.018 0-1.782.28-2.288.84-.51.56-.764 1.322-.764 2.287 0 2.135 1.22 4.347 3.66 6.635l7.628 7.323c1.78 1.729 3.254 3.369 4.424 4.92 1.17 1.551 2.11 3.382 2.822 5.49.712 2.111 1.068 4.616 1.068 7.514 0 6.458-1.182 11.352-3.547 14.681-2.363 3.331-6.267 4.997-11.708 4.997-5.948 0-10.246-1.475-12.889-4.424m49.781-9.153c.407-1.017.611-2.441.611-4.27V42.173c0-1.423-.191-2.58-.572-3.47-.381-.89-1.158-1.335-2.326-1.335-2.187 0-3.28 1.653-3.28 4.957v31.958c0 1.881.229 3.306.686 4.272.456.966 1.296 1.448 2.517 1.448 1.169 0 1.957-.507 2.365-1.525m-14.416 8.733c-2.745-3.228-4.118-7.767-4.118-13.614V42.403c0-5.644 1.373-9.902 4.118-12.776 2.745-2.872 6.762-4.31 12.05-4.31s9.306 1.438 12.052 4.31c2.745 2.873 4.118 7.132 4.118 12.776v31.195c0 5.898-1.373 10.449-4.118 13.653-2.746 3.203-6.763 4.805-12.051 4.805-5.289 0-9.306-1.614-12.05-4.844m48.507-37.029c1.83 0 2.746-1.984 2.746-5.95 0-1.728-.076-3.025-.229-3.89-.153-.864-.432-1.46-.838-1.792-.408-.33-.993-.495-1.755-.495h-3.05v12.127Zm-16.475-24.255h20.136c3.203 0 5.682.724 7.436 2.174 1.755 1.45 2.937 3.484 3.547 6.102.61 2.619.915 5.962.915 10.03 0 3.712-.484 6.61-1.45 8.694-.965 2.086-2.643 3.535-5.033 4.348 1.983.408 3.419 1.4 4.31 2.974.888 1.577 1.334 3.713 1.334 6.408l-.152 24.787h-12.814V65.818c0-1.83-.356-2.999-1.068-3.508-.712-.508-2.009-.763-3.89-.763v29.898h-13.271zm42.071 65.517V38.513h-7.78V25.928h28.678v12.585h-7.78v52.932Zm23.613-65.517h12.66v65.517h-12.66zm20.15 61.551c-2.62-3.051-3.928-7.576-3.928-13.576V25.928h12.738v47.44c0 2.086.203 3.714.61 4.883.406 1.17 1.27 1.753 2.593 1.753s2.185-.571 2.593-1.716c.406-1.144.61-2.783.61-4.92v-47.44h12.737v47.975c0 6-1.31 10.525-3.928 13.576-2.62 3.051-6.623 4.576-12.012 4.576-5.39 0-9.395-1.525-12.013-4.576m31.698 3.966V25.928h19.983l5.493 39.966 5.49-39.966h20.136v65.517h-11.974V44.234l-7.551 47.211h-11.745l-8.01-47.212v47.212ZM222.11 153.69c.406-1.016.61-2.44.61-4.27v-32.035c0-1.422-.19-2.58-.573-3.47-.381-.89-1.157-1.334-2.326-1.334-2.187 0-3.28 1.652-3.28 4.957v31.958c0 1.881.229 3.306.687 4.271.457.966 1.296 1.45 2.517 1.45 1.17 0 1.956-.509 2.364-1.526m-14.414 8.733c-2.747-3.229-4.12-7.767-4.12-13.615v-31.194c0-5.644 1.373-9.902 4.12-12.777 2.745-2.871 6.76-4.308 12.05-4.308 5.288 0 9.305 1.437 12.051 4.308 2.746 2.875 4.118 7.133 4.118 12.777v31.194c0 5.9-1.372 10.449-4.118 13.653-2.746 3.203-6.763 4.805-12.05 4.805-5.29 0-9.306-1.613-12.051-4.843m32.033 4.233v-65.518h26.236v12.738h-13.04v10.45h12.355v12.584h-12.356v29.746Zm47.668-65.517h12.66v65.517h-12.66zm16.618 65.517v-65.518h13.5l6.026 31.35v-31.35h12.661v65.518h-12.814l-6.559-32.797v32.797Zm43.261 0-8.085-65.593h12.508l4.805 44.619 4.272-44.62h12.508l-8.085 65.594Zm28.989 0v-65.518h26.238V113.8h-12.89v12.738h12.356v12.357h-12.356v15.024h13.73v12.738Zm33.673-3.814c-2.644-2.948-3.965-7.703-3.965-14.263v-6.406h12.89v8.161c0 3.254 1.04 4.882 3.126 4.882 1.17 0 1.983-.344 2.441-1.03.457-.686.686-1.843.686-3.47 0-2.136-.255-3.902-.762-5.3-.51-1.4-1.158-2.568-1.945-3.51-.79-.94-2.2-2.402-4.233-4.385l-5.644-5.644c-4.375-4.272-6.56-9-6.56-14.187 0-5.592 1.283-9.85 3.852-12.775 2.566-2.923 6.318-4.386 11.25-4.386 5.898 0 10.145 1.564 12.737 4.691 2.593 3.127 3.89 8.021 3.89 14.681h-13.347l-.077-4.498c0-.865-.242-1.551-.724-2.06-.484-.508-1.158-.763-2.021-.763-1.018 0-1.78.28-2.289.839-.508.56-.762 1.322-.762 2.288 0 2.136 1.22 4.348 3.661 6.636l7.627 7.323c1.78 1.727 3.253 3.367 4.424 4.918 1.169 1.552 2.11 3.383 2.822 5.492.712 2.11 1.067 4.614 1.067 7.512 0 6.458-1.182 11.353-3.546 14.683-2.365 3.33-6.268 4.996-11.708 4.996-5.949 0-10.246-1.474-12.89-4.425m37.93 3.814v-52.932h-7.78v-12.586h28.678v12.586h-7.779v52.932Zm23.613-65.517h12.661v65.517H471.48zm19.792 61.131c-2.314-3.33-3.47-8.377-3.47-15.14v-28.22c0-6.051 1.346-10.626 4.042-13.729 2.695-3.101 6.712-4.652 12.051-4.652 4.321 0 7.676.865 10.068 2.593 2.39 1.729 4.042 4.246 4.957 7.55.916 3.307 1.373 7.551 1.373 12.739h-12.814v-5.873c0-1.577-.216-2.797-.648-3.662-.433-.864-1.208-1.296-2.325-1.296-2.492 0-3.738 1.627-3.738 4.88v31.73c0 1.983.254 3.483.762 4.5.508 1.018 1.399 1.526 2.67 1.526 1.27 0 2.16-.508 2.67-1.526.507-1.017.763-2.517.763-4.5v-9.382h-3.51v-11.287h16.018v38.135h-5.263l-2.212-5.492c-2.34 4.069-5.949 6.102-10.831 6.102-4.728 0-8.25-1.665-10.563-4.996m46.288-16.665h5.949l-2.899-33.33H540Zm-14.492 21.05 6.33-65.516h22.195l6.255 65.517h-12.433l-.915-10.602h-7.932l-.763 10.602zm42.047.001v-52.932h-7.78v-12.586h28.679v12.586h-7.78v52.932Zm23.613-65.517h12.662v65.517h-12.662zm23.529 65.517-8.084-65.593h12.509l4.805 44.619 4.27-44.62h12.51l-8.085 65.594Zm28.99 0v-65.518h26.238V113.8h-12.89v12.738h12.356v12.357h-12.357v15.024h13.73v12.738Zm55.677-1.144c-2.44-1.169-4.36-2.885-5.758-5.148-1.4-2.262-2.098-4.996-2.098-8.2v-16.398h12.89v15.635c0 1.17.241 2.099.725 2.785.482.686 1.232 1.03 2.25 1.03.965 0 1.69-.318 2.174-.954.482-.635.724-1.537.724-2.707V101.14h13.195v49.119c0 3.407-.675 6.395-2.021 8.961-1.349 2.569-3.23 4.552-5.645 5.95-2.415 1.4-5.174 2.097-8.275 2.097-3 0-5.72-.585-8.161-1.754m46.044-11.823c.407-1.016.61-2.44.61-4.27v-32.035c0-1.422-.191-2.58-.571-3.47-.382-.89-1.158-1.334-2.327-1.334-2.187 0-3.28 1.652-3.28 4.957v31.958c0 1.881.23 3.306.686 4.271.457.966 1.297 1.45 2.517 1.45 1.17 0 1.957-.509 2.365-1.526m-14.415 8.733c-2.746-3.229-4.12-7.767-4.12-13.615v-31.194c0-5.644 1.374-9.902 4.12-12.777 2.745-2.871 6.762-4.308 12.05-4.308 5.289 0 9.306 1.437 12.051 4.308 2.746 2.875 4.119 7.133 4.119 12.777v31.194c0 5.9-1.373 10.449-4.119 13.653-2.745 3.203-6.762 4.805-12.05 4.805s-9.306-1.613-12.051-4.843m35.573.267c-2.62-3.05-3.928-7.575-3.928-13.577V101.14h12.737v47.44c0 2.086.203 3.714.61 4.882.406 1.17 1.27 1.755 2.594 1.755 1.32 0 2.185-.573 2.593-1.717.406-1.144.61-2.783.61-4.92v-47.44h12.737v47.974c0 6.002-1.31 10.526-3.928 13.577-2.62 3.051-6.623 4.576-12.012 4.576-5.391 0-9.395-1.525-12.013-4.576m48.172-37.297c1.831 0 2.746-1.983 2.746-5.95 0-1.727-.076-3.024-.229-3.89-.152-.863-.432-1.46-.84-1.792-.406-.33-.99-.495-1.753-.495h-3.05v12.127Zm-16.474-24.255h20.135c3.205 0 5.683.726 7.438 2.175 1.753 1.448 2.935 3.483 3.545 6.101.61 2.62.917 5.962.917 10.03 0 3.713-.485 6.61-1.45 8.694-.967 2.086-2.644 3.535-5.034 4.349 1.983.407 3.42 1.398 4.309 2.974.89 1.576 1.335 3.712 1.335 6.407l-.153 24.788h-12.813V141.03c0-1.83-.357-3-1.068-3.508-.712-.509-2.01-.764-3.89-.764v29.899h-13.271zm35.373 65.518v-65.518h13.5l6.026 31.35v-31.35h12.662v65.518H850.57l-6.559-32.797v32.797Zm49.881-21.051h5.95l-2.899-33.33h-.61Zm-14.492 21.05 6.331-65.516h22.194l6.255 65.517h-12.432l-.915-10.602h-7.932l-.763 10.602zm37.952.001v-65.518h13.118v54.381h13.5v11.137Zm29.372-65.517h12.66v65.517h-12.66zm19.79 61.703c-2.644-2.948-3.965-7.703-3.965-14.263v-6.406h12.89v8.161c0 3.254 1.04 4.882 3.126 4.882 1.17 0 1.983-.344 2.441-1.03.457-.686.686-1.843.686-3.47 0-2.136-.255-3.902-.762-5.3-.51-1.4-1.158-2.568-1.945-3.51-.79-.94-2.2-2.402-4.233-4.385l-5.644-5.644c-4.375-4.272-6.56-9-6.56-14.187 0-5.592 1.283-9.85 3.852-12.775 2.566-2.923 6.318-4.386 11.25-4.386 5.898 0 10.145 1.564 12.737 4.691 2.593 3.127 3.89 8.021 3.89 14.681h-13.347l-.077-4.498c0-.865-.242-1.551-.724-2.06-.485-.508-1.158-.763-2.02-.763-1.02 0-1.782.28-2.29.839-.509.56-.762 1.322-.762 2.288 0 2.136 1.22 4.348 3.661 6.636l7.627 7.323c1.78 1.727 3.253 3.367 4.423 4.918 1.17 1.552 2.11 3.383 2.823 5.492.712 2.11 1.067 4.614 1.067 7.512 0 6.458-1.182 11.353-3.546 14.683-2.365 3.33-6.268 4.996-11.709 4.996-5.948 0-10.244-1.474-12.89-4.425m37.931 3.814v-52.932h-7.78v-12.586h28.678v12.586h-7.78v52.932Zm27.236-3.814c-2.645-2.948-3.967-7.703-3.967-14.263v-6.406h12.89v8.161c0 3.254 1.042 4.882 3.128 4.882 1.168 0 1.983-.344 2.44-1.03.458-.686.687-1.843.687-3.47 0-2.136-.256-3.902-.764-5.3-.507-1.4-1.156-2.568-1.945-3.51-.788-.94-2.199-2.402-4.231-4.385l-5.645-5.644c-4.374-4.272-6.56-9-6.56-14.187 0-5.592 1.285-9.85 3.852-12.775 2.567-2.923 6.318-4.386 11.25-4.386 5.899 0 10.144 1.564 12.737 4.691 2.594 3.127 3.89 8.021 3.89 14.681h-13.348l-.075-4.498c0-.865-.242-1.551-.725-2.06-.484-.508-1.156-.763-2.02-.763-1.018 0-1.782.28-2.289.839-.509.56-.764 1.322-.764 2.288 0 2.136 1.221 4.348 3.662 6.636l7.627 7.323c1.78 1.727 3.254 3.367 4.424 4.918 1.17 1.552 2.109 3.383 2.822 5.492.712 2.11 1.068 4.614 1.068 7.512 0 6.458-1.182 11.353-3.547 14.683-2.364 3.33-6.267 4.996-11.708 4.996-5.949 0-10.246-1.474-12.89-4.425" fill="#fff"/>
</svg>
