<svg xmlns="http://www.w3.org/2000/svg" xml:space="preserve" viewBox="0 0 69.455734 78.168022">
  <path d="M64.45646 2.4180002c-.057 4.408-1.813 8.3769998-3.195 12.4929998-1.263 3.76-2.235 7.518-3.838 11.167-3.221 7.336-8.306 13.747-13.931 19.382-5.459 5.469-12.055 9.641-18.719 13.468-5.95 3.418-12.781 4.88-18.7679997 8.123 1.17-2.008 2.954-3.843 4.2229997-5.561 2.24-3.032 3.152-6.826 5.495-9.805 1.97-2.504-1.543-6.068-3.536-3.536-2.6229997 3.335-3.9169997 7.332-6.2769997 10.817-2.096 3.095-5.31300005 5.914-5.86600005 9.787-.16 1.123.087 2.213 1.14900005 2.823 6.826 3.921 14.3579997 6.387 22.2619997 6.591 3.226.083 3.218-4.917 0-5-4.562-.118-8.955-1.114-13.138-2.743 5.951-2.921 12.569-4.646 18.372-7.979 7.55-4.337 14.594-9.447 20.6-15.774 5.41-5.699 9.89-12.237 13.048-19.429 1.565-3.564 2.653-7.274 3.745-11.002 1.37-4.682 3.309-8.8579998 3.373-13.8219998.043-3.22599997-4.957-3.22199997-4.999 0z"/>
</svg>
