<?xml version="1.0" encoding="UTF-8" standalone="no"?>
<!-- Created with Inkscape (http://www.inkscape.org/) -->

<svg
   xmlns:dc="http://purl.org/dc/elements/1.1/"
   xmlns:cc="http://creativecommons.org/ns#"
   xmlns:rdf="http://www.w3.org/1999/02/22-rdf-syntax-ns#"
   xmlns:svg="http://www.w3.org/2000/svg"
   xmlns="http://www.w3.org/2000/svg"
   xmlns:sodipodi="http://sodipodi.sourceforge.net/DTD/sodipodi-0.dtd"
   xmlns:inkscape="http://www.inkscape.org/namespaces/inkscape"
   width="65mm"
   height="65mm"
   viewBox="0 0 230.31496 230.31496"
   id="svg2"
   version="1.1"
   inkscape:version="0.91 r13725"
   sodipodi:docname="murmur-white.svg">
  <defs
     id="defs4" />
  <sodipodi:namedview
     id="base"
     pagecolor="#001226"
     bordercolor="#666666"
     borderopacity="1.0"
     inkscape:pageopacity="0"
     inkscape:pageshadow="2"
     inkscape:zoom="1.4142136"
     inkscape:cx="349.43683"
     inkscape:cy="-5.0091574"
     inkscape:document-units="px"
     inkscape:current-layer="layer1"
     showgrid="false"
     fit-margin-top="0"
     fit-margin-left="0"
     fit-margin-right="0"
     fit-margin-bottom="0"
     inkscape:window-width="1920"
     inkscape:window-height="1056"
     inkscape:window-x="0"
     inkscape:window-y="24"
     inkscape:window-maximized="1"
     showguides="false" />
  <metadata
     id="metadata7">
    <rdf:RDF>
      <cc:Work
         rdf:about="">
        <dc:format>image/svg+xml</dc:format>
        <dc:type
           rdf:resource="http://purl.org/dc/dcmitype/StillImage" />
        <dc:title></dc:title>
      </cc:Work>
    </rdf:RDF>
  </metadata>
  <g
     inkscape:label="Calque 1"
     inkscape:groupmode="layer"
     id="layer1"
     transform="translate(-191.429,-339.19011)">
    <path
       style="fill:#ffffff;fill-opacity:1;stroke:none;stroke-opacity:1"
       d="m 237.92577,454.34732 0,-76.35162 8.52678,0.07 c 9.10353,0.0747 9.26344,0.0899 10.51115,0.99988 0.49114,0.35818 7.2236,9.66209 23.01564,31.8064 12.27678,17.21506 22.86665,32.1941 23.53305,33.28675 0.66639,1.09265 1.69404,2.93083 2.28367,4.08485 0.58963,1.15402 1.10315,2.09821 1.14115,2.09821 0.038,0 0.66585,-1.15415 1.39522,-2.56477 0.72937,-1.41063 1.93557,-3.47983 2.68044,-4.59822 0.74488,-1.11839 11.10848,-15.93522 23.03024,-32.92629 24.05311,-34.28088 22.07776,-31.69793 24.50765,-32.04601 0.6875,-0.0985 4.72545,-0.18065 8.97322,-0.1826 l 7.72321,-0.003 0,76.33929 0,76.33929 -8.2139,0 -8.21389,0 -0.045,-40.1863 -0.045,-40.18629 -18.21213,26.12379 c -10.01668,14.36809 -20.04581,28.74886 -22.28696,31.95727 -4.45969,6.38445 -4.76669,6.71091 -7.00091,7.44457 -1.40613,0.46174 -4.20262,0.63824 -6.42399,0.40546 -2.17036,-0.22744 -3.92961,-1.00335 -5.02396,-2.2158 -0.38226,-0.42348 -10.73961,-14.95799 -23.0164,-32.29896 l -22.32143,-31.52903 -0.045,40.24262 -0.045,40.24263 -8.21389,0 -8.2139,0 z m 70.20014,43.98714 c 0.60267,-1.20224 1.51427,-2.86965 2.02579,-3.70535 1.13637,-1.85658 45.22599,-64.16589 45.60469,-65.06219 3.34347,-7.91315 3.02854,-8.03454 3.08181,-14.49782 0.0599,-7.2652 0.17013,-13.69159 0.24501,-14.28088 0.12125,-0.95416 0.1067,-1.04211 -0.13288,-0.80357 -0.14796,0.14732 -10.17437,14.49107 -22.28091,31.875 -12.10653,17.38393 -22.26091,31.87344 -22.56527,32.19891 -0.69245,0.74048 -2.74661,1.7625 -4.01526,1.99773 -0.52903,0.0981 -1.97546,0.17717 -3.21429,0.17572 -3.56338,-0.004 -5.42965,-0.60642 -7.0016,-2.25942 -0.45134,-0.47462 -10.49161,-14.52365 -22.3117,-31.22008 -11.82009,-16.69643 -21.96537,-31.02562 -22.54506,-31.84265 -0.5797,-0.81702 -1.08846,-1.45104 -1.13057,-1.40892 -0.0421,0.0421 0.0201,0.79094 0.13827,1.66407 0.14101,1.04198 0.25003,5.9733 0.31726,14.35051 0.36485,7.96234 -0.51696,8.44823 3.16512,14.14139 9.64754,14.91684 21.23483,29.61884 31.73611,44.3456 7.07365,9.91964 13.30733,18.7264 13.85262,19.57058 0.54528,0.84418 1.63428,2.75016 2.42,4.2355 0.78571,1.48535 1.44804,2.70314 1.47184,2.7062 0.0238,0.003 0.53636,-0.97808 1.13902,-2.18033 z"
       id="path4144"
       inkscape:connector-curvature="0"
       sodipodi:nodetypes="ccssssssssssscccccccsssscsccccccssscscssccssscscscsscs" />
  </g>
</svg>
