<?xml version="1.0" encoding="UTF-8" standalone="no"?>
<svg
   xmlns:dc="http://purl.org/dc/elements/1.1/"
   xmlns:cc="http://creativecommons.org/ns#"
   xmlns:rdf="http://www.w3.org/1999/02/22-rdf-syntax-ns#"
   xmlns:svg="http://www.w3.org/2000/svg"
   xmlns="http://www.w3.org/2000/svg"
   xmlns:sodipodi="http://sodipodi.sourceforge.net/DTD/sodipodi-0.dtd"
   xmlns:inkscape="http://www.inkscape.org/namespaces/inkscape"
   id="Layer_1"
   data-name="Layer 1"
   viewBox="0 0 5109.8117 782.59001"
   version="1.1"
   sodipodi:docname="icij-full-white.svg"
   width="5109.8115"
   height="782.59003"
   inkscape:version="0.92.5 (2060ec1f9f, 2020-04-08)">
  <metadata
     id="metadata119">
    <rdf:RDF>
      <cc:Work
         rdf:about="">
        <dc:format>image/svg+xml</dc:format>
        <dc:type
           rdf:resource="http://purl.org/dc/dcmitype/StillImage" />
        <dc:title></dc:title>
      </cc:Work>
    </rdf:RDF>
  </metadata>
  <sodipodi:namedview
     pagecolor="#ffffff"
     bordercolor="#666666"
     borderopacity="1"
     objecttolerance="10"
     gridtolerance="10"
     guidetolerance="10"
     inkscape:pageopacity="0"
     inkscape:pageshadow="2"
     inkscape:window-width="1920"
     inkscape:window-height="1016"
     id="namedview117"
     showgrid="false"
     fit-margin-top="0"
     fit-margin-left="0"
     fit-margin-right="0"
     fit-margin-bottom="0"
     inkscape:zoom="0.084705407"
     inkscape:cx="2363.1471"
     inkscape:cy="441.78034"
     inkscape:window-x="0"
     inkscape:window-y="27"
     inkscape:window-maximized="1"
     inkscape:current-layer="Layer_3" />
  <defs
     id="defs4">
    <style
       id="style2">.cls-1{fill:#852308;}.cls-2{fill:#fff;}.cls-3{fill:#1e1e1e;}</style>
  </defs>
  <g
     id="Layer_3"
     data-name="Layer 3"
     transform="translate(-97.150002,-91.529999)">
    <rect
       class="cls-1"
       x="97.150002"
       y="91.529999"
       width="782.59003"
       height="782.59003"
       id="rect6"
       style="fill:#852308" />
    <g
       id="ICIJ">
      <path
         class="cls-2"
         d="m 443.53,540.1 h 69.21 a 20.92,20.92 0 0 1 0.39,2.84 c 0,17.71 0.67,35.46 -0.38,53.11 -1.9,32 -13.44,59.52 -40.8,78.47 -12.64,8.75 -26.86,13.62 -42,15.68 -20.79,2.83 -41.42,2 -61.44,-4.62 -36,-11.94 -56.26,-37.69 -63.14,-74.35 a 149.72,149.72 0 0 1 -2.3,-27 q -0.27,-102.54 -0.1,-205.08 c 0,-18.59 2.6,-36.7 10.67,-53.62 14.35,-30.07 39.06,-46.2 71.24,-51.71 17.87,-3.06 35.83,-3.23 53.53,1.19 38.38,9.57 60.7,35.15 70.21,72.5 2.71,10.66 3.59,21.89 4.31,32.93 0.72,11.04 0.16,21.9 0.16,33.15 h -69.57 c 0,-1.64 0,-3.22 0,-4.8 -0.24,-12.89 -0.25,-25.79 -0.88,-38.67 a 50.12,50.12 0 0 0 -3.05,-13.57 c -6.35,-18.42 -20,-26.33 -39.13,-23 -15.84,2.74 -24.29,11.69 -26.54,28.57 a 127.78,127.78 0 0 0 -1.05,16.82 c -0.07,68.5 -0.16,137 0.1,205.5 a 109,109 0 0 0 3.25,25.56 c 2.61,10.6 10.21,17.42 21,19.06 a 78.08,78.08 0 0 0 22.84,0.28 c 13.2,-2 21.68,-12.17 22.51,-27.62 1,-18.62 0.71,-37.3 1,-56 0,-1.77 0,-3.52 0,-5.62"
         id="path8"
         inkscape:connector-curvature="0"
         style="fill:#ffffff" />
      <path
         class="cls-2"
         d="m 663.88,691.63 v -60.89 c 1.69,-0.09 3.26,-0.2 4.84,-0.26 7,-0.28 14,0 20.95,-0.92 15.82,-2 24.29,-11.68 25,-27.66 0.15,-3.15 0.14,-6.31 0.14,-9.47 q 0,-154.62 0,-309.25 v -5.57 l 69.88,0.07 c 0,0 0,220.26 -0.12,328.56 0,14.48 -1.69,28.76 -7.45,42.27 -9,21 -25.81,32.37 -47.12,38.17 -14.28,3.89 -28.9,4.92 -43.62,4.94 h -22.5"
         id="path10"
         inkscape:connector-curvature="0"
         style="fill:#ffffff" />
      <rect
         class="cls-2"
         x="192.85001"
         y="277.57001"
         width="69.300003"
         height="408.16"
         id="rect12"
         style="fill:#ffffff" />
      <rect
         class="cls-2"
         x="555.20001"
         y="277.51999"
         width="69.160004"
         height="408.19"
         id="rect14"
         style="fill:#ffffff" />
    </g>
    <path
       class="cls-3"
       d="m 1058.46,447.92 h -41.22 V 271.29 h 41.22 z"
       id="path17"
       inkscape:connector-curvature="0"
       style="fill:#ffffff" />
    <path
       class="cls-3"
       d="m 1141.51,271.53 a 11.54,11.54 0 0 1 3.27,0.91 10.79,10.79 0 0 1 2.79,1.88 32.12,32.12 0 0 1 3,3.27 l 83.89,106.08 c -0.32,-3.39 -0.57,-6.69 -0.73,-9.88 -0.16,-3.19 -0.24,-6.2 -0.24,-9 v -93.5 h 36.13 v 176.63 h -21.34 a 19.66,19.66 0 0 1 -8,-1.45 17.17,17.17 0 0 1 -6.3,-5.33 l -83.29,-105.23 q 0.36,4.6 0.61,9 0.25,4.4 0.24,8.3 v 94.68 h -36.13 V 271.29 H 1137 a 35.27,35.27 0 0 1 4.51,0.24 z"
       id="path19"
       inkscape:connector-curvature="0"
       style="fill:#ffffff" />
    <path
       class="cls-3"
       d="m 1451.25,271.29 v 32.49 h -49.7 v 144.14 h -41 V 303.78 h -49.7 v -32.49 z"
       id="path21"
       inkscape:connector-curvature="0"
       style="fill:#ffffff" />
    <path
       class="cls-3"
       d="m 1606.18,271.29 v 31.52 h -72.5 V 344 h 55.52 v 30.31 h -55.52 v 42.07 h 72.5 V 447.9 H 1492.47 V 271.29 Z"
       id="path23"
       inkscape:connector-curvature="0"
       style="fill:#ffffff" />
    <path
       class="cls-3"
       d="m 1694.68,382.58 v 65.34 h -41 V 271.29 h 57.46 q 19.15,0 32.67,3.94 13.52,3.94 22.06,11 a 41.54,41.54 0 0 1 12.43,16.61 55,55 0 0 1 3.88,20.85 56.24,56.24 0 0 1 -2.3,16.25 49.28,49.28 0 0 1 -6.85,14.12 53.3,53.3 0 0 1 -11.15,11.58 59.81,59.81 0 0 1 -15.21,8.37 38.91,38.91 0 0 1 7.7,5.09 30.43,30.43 0 0 1 6.24,7.4 l 37.58,61.46 h -37.1 q -10.3,0 -14.79,-7.76 L 1717,388.89 a 12.34,12.34 0 0 0 -4.55,-4.85 15.21,15.21 0 0 0 -7.33,-1.45 h -10.42 z m 0,-28.25 h 16.49 a 42.23,42.23 0 0 0 14.24,-2.12 25.67,25.67 0 0 0 9.64,-5.88 22.48,22.48 0 0 0 5.46,-8.79 33.75,33.75 0 0 0 1.7,-10.85 q 0,-11.64 -7.58,-18.18 -7.58,-6.54 -23.46,-6.51 h -16.49 z"
       id="path25"
       inkscape:connector-curvature="0"
       style="fill:#ffffff" />
    <path
       class="cls-3"
       d="m 1865.25,271.53 a 11.54,11.54 0 0 1 3.27,0.91 10.79,10.79 0 0 1 2.79,1.88 32.12,32.12 0 0 1 3,3.27 l 83.89,106.08 c -0.32,-3.39 -0.57,-6.69 -0.73,-9.88 -0.16,-3.19 -0.24,-6.2 -0.24,-9 v -93.5 h 36.13 v 176.63 h -21.34 a 19.66,19.66 0 0 1 -8,-1.45 17.17,17.17 0 0 1 -6.3,-5.33 l -83.29,-105.23 q 0.36,4.6 0.61,9 0.25,4.4 0.24,8.3 v 94.68 h -36.13 v -176.6 h 21.58 a 35.16,35.16 0 0 1 4.52,0.24 z"
       id="path27"
       inkscape:connector-curvature="0"
       style="fill:#ffffff" />
    <path
       class="cls-3"
       d="m 2211.12,447.92 h -31.76 a 14.65,14.65 0 0 1 -8.79,-2.49 12.89,12.89 0 0 1 -4.79,-6.36 l -10.43,-30.79 h -67.16 l -10.43,30.79 a 14.06,14.06 0 0 1 -13.34,8.85 h -32 l 68.37,-176.63 h 41.95 z m -113.47,-67.53 h 48.25 l -16.24,-48.39 -3.7,-10.85 q -2.13,-6.24 -4.18,-13.52 -1.94,7.39 -4,13.7 -2.06,6.31 -3.88,10.91 z"
       id="path29"
       inkscape:connector-curvature="0"
       style="fill:#ffffff" />
    <path
       class="cls-3"
       d="m 2358.54,271.29 v 32.49 h -49.7 v 144.14 h -41 V 303.78 h -49.7 v -32.49 z"
       id="path31"
       inkscape:connector-curvature="0"
       style="fill:#ffffff" />
    <path
       class="cls-3"
       d="m 2444.61,447.92 h -41.22 V 271.29 h 41.22 z"
       id="path33"
       inkscape:connector-curvature="0"
       style="fill:#ffffff" />
    <path
       class="cls-3"
       d="m 2675.92,359.54 a 94.81,94.81 0 0 1 -6.61,35.64 84.23,84.23 0 0 1 -47.52,47.76 105.48,105.48 0 0 1 -75.1,0 84.31,84.31 0 0 1 -47.7,-47.76 99.39,99.39 0 0 1 0,-71.28 84.73,84.73 0 0 1 18.67,-28.61 86.25,86.25 0 0 1 29,-19 98.7,98.7 0 0 1 37.58,-6.91 97.5,97.5 0 0 1 37.52,7 86.62,86.62 0 0 1 28.91,19.09 85.33,85.33 0 0 1 18.64,28.53 94.48,94.48 0 0 1 6.61,35.54 z m -42,0 a 76.46,76.46 0 0 0 -3.39,-23.58 50,50 0 0 0 -9.76,-17.76 42,42 0 0 0 -15.58,-11.15 53.52,53.52 0 0 0 -21,-3.88 54.3,54.3 0 0 0 -21.15,3.88 42,42 0 0 0 -15.64,11.15 50,50 0 0 0 -9.76,17.76 84.12,84.12 0 0 0 0,47.28 50,50 0 0 0 9.76,17.76 41.32,41.32 0 0 0 15.64,11.09 55.24,55.24 0 0 0 21.15,3.82 54.26,54.26 0 0 0 21,-3.82 41.6,41.6 0 0 0 15.63,-11.09 50,50 0 0 0 9.76,-17.76 76.88,76.88 0 0 0 3.42,-23.7 z"
       id="path35"
       inkscape:connector-curvature="0"
       style="fill:#ffffff" />
    <path
       class="cls-3"
       d="m 2745.87,271.53 a 11.54,11.54 0 0 1 3.27,0.91 10.79,10.79 0 0 1 2.79,1.88 32.12,32.12 0 0 1 3,3.27 l 83.89,106.08 c -0.32,-3.39 -0.57,-6.69 -0.73,-9.88 -0.16,-3.19 -0.24,-6.2 -0.24,-9 v -93.5 H 2874 v 176.63 h -21.34 a 19.66,19.66 0 0 1 -8,-1.45 17.17,17.17 0 0 1 -6.3,-5.33 l -83.29,-105.23 q 0.36,4.6 0.61,9 0.25,4.4 0.24,8.3 v 94.68 h -36.12 v -176.6 h 21.58 a 35.27,35.27 0 0 1 4.49,0.24 z"
       id="path37"
       inkscape:connector-curvature="0"
       style="fill:#ffffff" />
    <path
       class="cls-3"
       d="M 3091.74,447.92 H 3060 a 14.65,14.65 0 0 1 -8.79,-2.49 12.89,12.89 0 0 1 -4.79,-6.36 L 3036,408.28 h -67.16 l -10.43,30.79 a 14.06,14.06 0 0 1 -13.34,8.85 h -32 l 68.37,-176.63 h 42 z m -113.48,-67.53 h 48.25 l -16.25,-48.39 -3.7,-10.85 q -2.13,-6.24 -4.18,-13.52 -1.93,7.39 -4,13.7 -2.07,6.31 -3.88,10.91 z"
       id="path39"
       inkscape:connector-curvature="0"
       style="fill:#ffffff" />
    <path
       class="cls-3"
       d="m 3171.26,415.19 h 65.46 v 32.73 H 3130.28 V 271.29 h 41 z"
       id="path41"
       inkscape:connector-curvature="0"
       style="fill:#ffffff" />
    <path
       class="cls-3"
       d="m 3470.1,402.21 a 8.11,8.11 0 0 1 2.91,0.55 7.86,7.86 0 0 1 2.79,1.88 l 16.25,17.09 a 67.28,67.28 0 0 1 -26.73,21 q -16.07,7.1 -38,7.09 -20.13,0 -36.07,-6.85 a 78,78 0 0 1 -27,-18.91 83.2,83.2 0 0 1 -17,-28.61 105.64,105.64 0 0 1 -5.94,-36 94.7,94.7 0 0 1 6.79,-36.31 83.65,83.65 0 0 1 48.06,-47.14 101.7,101.7 0 0 1 37.46,-6.67 95.54,95.54 0 0 1 18.73,1.76 91.69,91.69 0 0 1 16.43,4.85 76.77,76.77 0 0 1 14.06,7.4 68,68 0 0 1 11.4,9.52 l -13.82,18.55 a 17.76,17.76 0 0 1 -3.15,3.09 8.19,8.19 0 0 1 -5.09,1.39 9,9 0 0 1 -4.12,-1 45.92,45.92 0 0 1 -4.12,-2.36 c -1.46,-0.93 -3.05,-1.94 -4.79,-3 a 37.09,37.09 0 0 0 -6.18,-3 50.3,50.3 0 0 0 -8.36,-2.36 56.78,56.78 0 0 0 -11.21,-1 51.21,51.21 0 0 0 -20.37,3.94 44.78,44.78 0 0 0 -15.82,11.27 52.12,52.12 0 0 0 -10.3,17.76 69.55,69.55 0 0 0 -3.7,23.4 72.58,72.58 0 0 0 3.7,24.12 53,53 0 0 0 10.09,17.76 42.56,42.56 0 0 0 14.85,11 44.33,44.33 0 0 0 18.18,3.76 85.54,85.54 0 0 0 10.18,-0.55 41.82,41.82 0 0 0 8.55,-1.88 39.37,39.37 0 0 0 7.52,-3.46 49.87,49.87 0 0 0 7.21,-5.27 14.47,14.47 0 0 1 3.15,-2 8.24,8.24 0 0 1 3.46,-0.81 z"
       id="path43"
       inkscape:connector-curvature="0"
       style="fill:#ffffff" />
    <path
       class="cls-3"
       d="m 3709.28,359.54 a 94.81,94.81 0 0 1 -6.61,35.64 84.23,84.23 0 0 1 -47.52,47.76 105.48,105.48 0 0 1 -75.1,0 84.28,84.28 0 0 1 -47.71,-47.76 99.39,99.39 0 0 1 0,-71.28 84.73,84.73 0 0 1 18.66,-28.61 86.2,86.2 0 0 1 29,-19 98.7,98.7 0 0 1 37.58,-6.91 97.5,97.5 0 0 1 37.52,7 86.62,86.62 0 0 1 28.91,19.09 85.33,85.33 0 0 1 18.66,28.53 94.48,94.48 0 0 1 6.61,35.54 z m -41.94,0 A 76.46,76.46 0 0 0 3664,336 a 50,50 0 0 0 -9.76,-17.76 42,42 0 0 0 -15.58,-11.15 53.52,53.52 0 0 0 -21,-3.88 54.39,54.39 0 0 0 -21.16,3.88 42,42 0 0 0 -15.64,11.15 50,50 0 0 0 -9.76,17.76 84.12,84.12 0 0 0 0,47.28 50,50 0 0 0 9.76,17.76 41.32,41.32 0 0 0 15.64,11.09 55.26,55.26 0 0 0 21.16,3.82 54.26,54.26 0 0 0 21,-3.82 41.6,41.6 0 0 0 15.53,-11.13 50,50 0 0 0 9.76,-17.76 76.88,76.88 0 0 0 3.39,-23.7 z"
       id="path45"
       inkscape:connector-curvature="0"
       style="fill:#ffffff" />
    <path
       class="cls-3"
       d="m 3779.23,271.53 a 11.54,11.54 0 0 1 3.27,0.91 10.79,10.79 0 0 1 2.79,1.88 32.12,32.12 0 0 1 3,3.27 l 83.89,106.08 c -0.32,-3.39 -0.57,-6.69 -0.73,-9.88 -0.16,-3.19 -0.24,-6.2 -0.24,-9 v -93.5 h 36.13 V 447.92 H 3886 a 19.66,19.66 0 0 1 -8,-1.45 17.17,17.17 0 0 1 -6.3,-5.33 l -83.29,-105.23 q 0.36,4.6 0.61,9 0.25,4.4 0.24,8.3 v 94.68 h -36.13 v -176.6 h 21.58 a 35.16,35.16 0 0 1 4.52,0.24 z"
       id="path47"
       inkscape:connector-curvature="0"
       style="fill:#ffffff" />
    <path
       class="cls-3"
       d="m 4059.15,307.17 a 15.38,15.38 0 0 1 -3.82,4.36 8.53,8.53 0 0 1 -5.15,1.46 12.62,12.62 0 0 1 -6,-1.76 c -2.14,-1.17 -4.57,-2.49 -7.27,-3.94 a 60.92,60.92 0 0 0 -9.27,-3.94 37.2,37.2 0 0 0 -11.88,-1.76 q -11.52,0 -17.15,4.91 -5.63,4.91 -5.61,13.27 a 12.23,12.23 0 0 0 3.39,8.85 29.31,29.31 0 0 0 8.91,6.06 96,96 0 0 0 12.61,4.67 q 7.1,2.13 14.49,4.73 a 130.91,130.91 0 0 1 14.49,6.12 48.17,48.17 0 0 1 12.61,9 41.82,41.82 0 0 1 8.91,13.27 q 3.39,7.81 3.39,18.85 a 61.59,61.59 0 0 1 -4.24,22.91 53.71,53.71 0 0 1 -12.3,18.61 57.21,57.21 0 0 1 -19.88,12.49 74.39,74.39 0 0 1 -26.85,4.55 86.17,86.17 0 0 1 -16.79,-1.7 99.79,99.79 0 0 1 -16.55,-4.79 95.58,95.58 0 0 1 -15,-7.33 63.48,63.48 0 0 1 -12.24,-9.46 L 3960,407.42 a 9.91,9.91 0 0 1 3.76,-3.52 10.63,10.63 0 0 1 5.21,-1.33 13.83,13.83 0 0 1 7.33,2.3 q 3.69,2.31 8.37,5.09 a 67.48,67.48 0 0 0 10.73,5.09 40.14,40.14 0 0 0 14.31,2.3 q 11.15,0 17.34,-4.91 6.19,-4.91 6.18,-15.58 a 14.74,14.74 0 0 0 -3.39,-10.06 26.16,26.16 0 0 0 -8.91,-6.43 82.57,82.57 0 0 0 -12.55,-4.49 q -7,-1.94 -14.43,-4.3 a 106.67,106.67 0 0 1 -14.43,-5.82 45.43,45.43 0 0 1 -12.55,-9.09 42.43,42.43 0 0 1 -8.91,-14.06 q -3.39,-8.43 -3.39,-20.79 a 49.31,49.31 0 0 1 4,-19.4 50.18,50.18 0 0 1 11.76,-16.85 57.85,57.85 0 0 1 19,-11.82 70.29,70.29 0 0 1 25.82,-4.42 96.7,96.7 0 0 1 15.82,1.27 83.15,83.15 0 0 1 14.61,3.76 80.62,80.62 0 0 1 12.91,5.94 59.31,59.31 0 0 1 10.73,7.82 z"
       id="path49"
       inkscape:connector-curvature="0"
       style="fill:#ffffff" />
    <path
       class="cls-3"
       d="m 4290.7,359.54 a 94.81,94.81 0 0 1 -6.61,35.64 84.23,84.23 0 0 1 -47.52,47.76 105.48,105.48 0 0 1 -75.1,0 84.28,84.28 0 0 1 -47.71,-47.76 99.39,99.39 0 0 1 0,-71.28 84.73,84.73 0 0 1 18.67,-28.61 86.2,86.2 0 0 1 29,-19 98.7,98.7 0 0 1 37.58,-6.91 97.5,97.5 0 0 1 37.52,7 86.62,86.62 0 0 1 28.91,19.09 85.33,85.33 0 0 1 18.65,28.53 94.48,94.48 0 0 1 6.61,35.54 z m -41.95,0 a 76.46,76.46 0 0 0 -3.39,-23.58 50,50 0 0 0 -9.76,-17.76 42,42 0 0 0 -15.6,-11.15 53.52,53.52 0 0 0 -21,-3.88 54.39,54.39 0 0 0 -21.16,3.88 42,42 0 0 0 -15.64,11.15 50,50 0 0 0 -9.76,17.76 84.12,84.12 0 0 0 0,47.28 50,50 0 0 0 9.76,17.76 41.32,41.32 0 0 0 15.64,11.09 55.26,55.26 0 0 0 21.16,3.82 54.26,54.26 0 0 0 21,-3.82 41.6,41.6 0 0 0 15.6,-11.09 50,50 0 0 0 9.76,-17.76 76.88,76.88 0 0 0 3.39,-23.7 z"
       id="path51"
       inkscape:connector-curvature="0"
       style="fill:#ffffff" />
    <path
       class="cls-3"
       d="m 4375.56,382.58 v 65.34 h -41 V 271.29 H 4392 q 19.16,0 32.67,3.94 13.51,3.94 22.06,11 a 41.54,41.54 0 0 1 12.43,16.61 55,55 0 0 1 3.88,20.85 56.24,56.24 0 0 1 -2.3,16.25 49.28,49.28 0 0 1 -6.85,14.12 53.3,53.3 0 0 1 -11.15,11.58 59.81,59.81 0 0 1 -15.21,8.37 38.91,38.91 0 0 1 7.7,5.09 30.43,30.43 0 0 1 6.24,7.4 l 37.58,61.46 H 4442 q -10.31,0 -14.79,-7.76 l -29.34,-51.28 a 12.34,12.34 0 0 0 -4.55,-4.85 15.21,15.21 0 0 0 -7.33,-1.45 h -10.42 z m 0,-28.25 h 16.49 a 42.33,42.33 0 0 0 14.25,-2.12 25.67,25.67 0 0 0 9.64,-5.88 22.48,22.48 0 0 0 5.46,-8.79 33.75,33.75 0 0 0 1.7,-10.85 q 0,-11.64 -7.58,-18.18 -7.58,-6.54 -23.46,-6.51 h -16.49 v 52.37 z"
       id="path53"
       inkscape:connector-curvature="0"
       style="fill:#ffffff" />
    <path
       class="cls-3"
       d="m 4641.05,271.29 v 32.49 h -49.7 v 144.14 h -41 V 303.78 h -49.7 v -32.49 z"
       id="path55"
       inkscape:connector-curvature="0"
       style="fill:#ffffff" />
    <path
       class="cls-3"
       d="m 4727.13,447.92 h -41.22 V 271.29 h 41.22 z"
       id="path57"
       inkscape:connector-curvature="0"
       style="fill:#ffffff" />
    <path
       class="cls-3"
       d="m 4857.57,415.55 a 37.63,37.63 0 0 0 14.73,-2.73 29.89,29.89 0 0 0 11,-7.82 34.61,34.61 0 0 0 6.85,-12.43 54.12,54.12 0 0 0 2.36,-16.67 V 271.29 h 41 v 104.62 a 81.8,81.8 0 0 1 -5.27,29.82 67.1,67.1 0 0 1 -15.09,23.4 68.18,68.18 0 0 1 -23.88,15.28 86.85,86.85 0 0 1 -31.64,5.46 q -17.7,0 -31.76,-5.46 a 68,68 0 0 1 -23.88,-15.28 66,66 0 0 1 -15,-23.4 82.43,82.43 0 0 1 -5.21,-29.82 V 271.29 h 41 v 104.5 a 54.47,54.47 0 0 0 2.36,16.67 35.31,35.31 0 0 0 6.85,12.49 29.46,29.46 0 0 0 11,7.88 37.64,37.64 0 0 0 14.58,2.72 z"
       id="path59"
       inkscape:connector-curvature="0"
       style="fill:#ffffff" />
    <path
       class="cls-3"
       d="m 5079.36,376.75 q 2.24,5 4.3,10.19 2.06,-5.34 4.36,-10.38 2.3,-5.04 4.73,-9.77 l 45.34,-89.32 a 14.8,14.8 0 0 1 2.49,-3.58 8.09,8.09 0 0 1 2.85,-1.88 9.77,9.77 0 0 1 3.58,-0.61 H 5183 v 176.51 h -36.13 V 346.33 q 0,-7.4 0.73,-16 l -46.79,90.8 a 15.52,15.52 0 0 1 -5.88,6.43 16.31,16.31 0 0 1 -8.43,2.18 h -5.58 a 16.34,16.34 0 0 1 -8.43,-2.18 15.46,15.46 0 0 1 -5.88,-6.43 l -47,-90.92 q 0.48,4.25 0.73,8.43 c 0.16,2.79 0.24,5.35 0.24,7.7 v 101.59 h -36.13 V 271.41 h 35.95 a 9.81,9.81 0 0 1 3.58,0.61 8.23,8.23 0 0 1 2.85,1.88 14.8,14.8 0 0 1 2.49,3.58 l 45.46,89.68 q 2.34,4.61 4.58,9.59 z"
       id="path61"
       inkscape:connector-curvature="0"
       style="fill:#ffffff" />
    <path
       class="cls-3"
       d="m 1037.61,696.78 a 51.58,51.58 0 0 1 -19.09,-3.46 41.8,41.8 0 0 1 -15.15,-10.12 47.42,47.42 0 0 1 -10,-16.37 63,63 0 0 1 -3.64,-22.18 86.21,86.21 0 0 1 5.15,-30.07 76.29,76.29 0 0 1 14.06,-24.12 66,66 0 0 1 20.79,-16 56.85,56.85 0 0 1 25.34,-5.82 51.58,51.58 0 0 1 19.09,3.46 42.37,42.37 0 0 1 15.21,10.12 47,47 0 0 1 10.06,16.37 63,63 0 0 1 3.64,22.19 84.39,84.39 0 0 1 -5.21,29.88 78.3,78.3 0 0 1 -14.12,24.12 66.33,66.33 0 0 1 -20.74,16.12 56.37,56.37 0 0 1 -25.39,5.88 z m 2.67,-23 a 22.9,22.9 0 0 0 13.58,-4.3 37.32,37.32 0 0 0 10.37,-11.52 60.12,60.12 0 0 0 6.61,-16.79 86,86 0 0 0 2.3,-20.12 q 0,-15.15 -5.15,-22.31 -5.15,-7.16 -15.58,-7.15 a 23.19,23.19 0 0 0 -13.58,4.24 35.67,35.67 0 0 0 -10.3,11.52 62.25,62.25 0 0 0 -6.55,16.85 86.13,86.13 0 0 0 -2.3,20.25 q 0,15.15 5.09,22.25 5.09,7.1 15.51,7.05 z"
       id="path63"
       inkscape:connector-curvature="0"
       style="fill:#ffffff" />
    <path
       class="cls-3"
       d="m 1179.94,593 -11.76,96.86 -6.18,22.8 a 18.56,18.56 0 0 1 -5.27,9.09 q -3.59,3.15 -10.12,3.15 h -12 l 15.88,-131.9 -9.58,-1.7 a 8.69,8.69 0 0 1 -4.36,-2 5.47,5.47 0 0 1 -1.7,-4.3 4,4 0 0 1 0.06,-0.49 c 0,-0.24 0.1,-0.79 0.18,-1.64 0.08,-0.85 0.22,-2.14 0.42,-3.88 0.2,-1.74 0.5,-4.18 0.91,-7.33 h 16.73 l 1.09,-9.21 a 58,58 0 0 1 5.64,-19.16 48.94,48.94 0 0 1 10.91,-14.43 46.35,46.35 0 0 1 15.21,-9.09 53.57,53.57 0 0 1 18.55,-3.15 43,43 0 0 1 14.31,2.3 l -2.67,15.52 a 3.54,3.54 0 0 1 -1.15,2.12 5.54,5.54 0 0 1 -2.24,1.15 15.87,15.87 0 0 1 -3,0.49 q -1.63,0.12 -3.33,0.12 a 28.42,28.42 0 0 0 -8.91,1.33 18.52,18.52 0 0 0 -7.15,4.3 22.72,22.72 0 0 0 -5.09,7.76 44.94,44.94 0 0 0 -2.85,11.7 l -1,8.24 h 27.88 l -2.73,21.35 z"
       id="path65"
       inkscape:connector-curvature="0"
       style="fill:#ffffff" />
    <path
       class="cls-3"
       d="m 1349.66,695 h -41.22 V 518.33 h 41.22 z"
       id="path67"
       inkscape:connector-curvature="0"
       style="fill:#ffffff" />
    <path
       class="cls-3"
       d="m 1427.85,518.57 a 11.54,11.54 0 0 1 3.27,0.91 11,11 0 0 1 2.79,1.88 32.12,32.12 0 0 1 3,3.27 l 83.89,106.08 c -0.32,-3.39 -0.57,-6.69 -0.73,-9.88 -0.16,-3.19 -0.24,-6.2 -0.24,-9 v -93.5 H 1556 V 695 h -21.34 a 19.65,19.65 0 0 1 -8,-1.46 17.17,17.17 0 0 1 -6.3,-5.33 l -83.29,-105.23 q 0.36,4.6 0.61,9 0.25,4.4 0.24,8.3 V 695 h -36.13 V 518.33 h 21.58 a 35.16,35.16 0 0 1 4.48,0.24 z"
       id="path69"
       inkscape:connector-curvature="0"
       style="fill:#ffffff" />
    <path
       class="cls-3"
       d="m 1589.93,518.33 h 33 a 14.7,14.7 0 0 1 8.73,2.42 13.32,13.32 0 0 1 4.85,6.43 l 34.19,94.56 q 2.3,6.18 4.67,13.46 2.37,7.28 4.42,15.27 1.7,-8 3.94,-15.27 2.24,-7.27 4.42,-13.46 l 33.94,-94.56 a 14.06,14.06 0 0 1 13.34,-8.85 h 33.22 L 1697.82,695 h -37.1 z"
       id="path71"
       inkscape:connector-curvature="0"
       style="fill:#ffffff" />
    <path
       class="cls-3"
       d="m 1916.29,518.33 v 31.52 h -72.5 v 41.22 h 55.52 v 30.31 h -55.52 v 42.07 h 72.5 V 695 H 1802.58 V 518.33 Z"
       id="path73"
       inkscape:connector-curvature="0"
       style="fill:#ffffff" />
    <path
       class="cls-3"
       d="m 2057.4,554.21 a 15.38,15.38 0 0 1 -3.82,4.36 8.53,8.53 0 0 1 -5.15,1.46 12.62,12.62 0 0 1 -6,-1.76 c -2.14,-1.17 -4.57,-2.49 -7.27,-3.94 a 60.92,60.92 0 0 0 -9.27,-3.94 37.2,37.2 0 0 0 -11.88,-1.76 q -11.52,0 -17.15,4.91 -5.63,4.91 -5.64,13.28 a 12.23,12.23 0 0 0 3.39,8.85 29.31,29.31 0 0 0 8.91,6.06 96,96 0 0 0 12.61,4.67 q 7.09,2.13 14.49,4.73 a 130.91,130.91 0 0 1 14.49,6.12 48.17,48.17 0 0 1 12.61,9 41.76,41.76 0 0 1 8.91,13.28 q 3.39,7.82 3.39,18.85 a 61.55,61.55 0 0 1 -4.24,22.91 53.59,53.59 0 0 1 -12.31,18.61 57.21,57.21 0 0 1 -19.88,12.49 74.39,74.39 0 0 1 -26.85,4.55 86.17,86.17 0 0 1 -16.79,-1.7 99.79,99.79 0 0 1 -16.55,-4.79 95.58,95.58 0 0 1 -15,-7.33 63.48,63.48 0 0 1 -12.24,-9.46 l 12.12,-19.15 a 9.91,9.91 0 0 1 3.72,-3.51 10.63,10.63 0 0 1 5.21,-1.33 13.83,13.83 0 0 1 7.33,2.3 q 3.69,2.31 8.36,5.09 a 67.48,67.48 0 0 0 10.73,5.09 40.14,40.14 0 0 0 14.31,2.3 q 11.16,0 17.34,-4.91 6.18,-4.91 6.18,-15.58 a 14.74,14.74 0 0 0 -3.39,-10.06 26.14,26.14 0 0 0 -8.91,-6.42 82.57,82.57 0 0 0 -12.55,-4.49 q -7,-1.94 -14.43,-4.3 a 106.67,106.67 0 0 1 -14.43,-5.82 45.43,45.43 0 0 1 -12.55,-9.09 42.43,42.43 0 0 1 -8.91,-14.06 q -3.39,-8.43 -3.39,-20.79 a 49.31,49.31 0 0 1 4,-19.4 50.18,50.18 0 0 1 11.76,-16.85 57.85,57.85 0 0 1 19,-11.82 70.29,70.29 0 0 1 25.82,-4.42 96.7,96.7 0 0 1 15.82,1.27 83.15,83.15 0 0 1 14.61,3.76 80.62,80.62 0 0 1 12.91,5.94 59.31,59.31 0 0 1 10.73,7.82 z"
       id="path75"
       inkscape:connector-curvature="0"
       style="fill:#ffffff" />
    <path
       class="cls-3"
       d="m 2238,518.33 v 32.49 h -49.7 V 695 h -41 V 550.82 h -49.7 v -32.49 z"
       id="path77"
       inkscape:connector-curvature="0"
       style="fill:#ffffff" />
    <path
       class="cls-3"
       d="M 2319.25,695 H 2278 V 518.33 h 41.22 z"
       id="path79"
       inkscape:connector-curvature="0"
       style="fill:#ffffff" />
    <path
       class="cls-3"
       d="m 2454.54,665.38 a 69.62,69.62 0 0 0 15,-1.46 73.47,73.47 0 0 0 12.37,-3.88 v -26.79 h -17.46 a 8.48,8.48 0 0 1 -6.06,-2.06 6.87,6.87 0 0 1 -2.18,-5.21 V 603.43 H 2519 V 678 a 92.67,92.67 0 0 1 -14.12,8.55 91,91 0 0 1 -15.64,5.88 115.19,115.19 0 0 1 -17.7,3.39 174.75,174.75 0 0 1 -20.19,1.09 92.52,92.52 0 0 1 -35.88,-6.85 85.88,85.88 0 0 1 -47.46,-47.52 93,93 0 0 1 -6.85,-35.94 97.76,97.76 0 0 1 6.55,-36.31 81.76,81.76 0 0 1 18.73,-28.55 85,85 0 0 1 29.46,-18.67 q 17.28,-6.66 38.61,-6.67 a 112.72,112.72 0 0 1 20.73,1.82 101.65,101.65 0 0 1 17.88,5 82.15,82.15 0 0 1 15,7.52 79.8,79.8 0 0 1 12.12,9.46 l -11.88,18.06 a 13.21,13.21 0 0 1 -4.06,4 9.65,9.65 0 0 1 -5.15,1.46 14.28,14.28 0 0 1 -7.52,-2.42 c -3.23,-1.94 -6.29,-3.62 -9.15,-5 a 55.37,55.37 0 0 0 -18.25,-5.4 93.51,93.51 0 0 0 -11.15,-0.61 50.82,50.82 0 0 0 -20.73,4.06 44.48,44.48 0 0 0 -15.7,11.46 51.81,51.81 0 0 0 -10,17.76 71.69,71.69 0 0 0 -3.52,23.09 74.18,74.18 0 0 0 3.88,25 53.7,53.7 0 0 0 10.74,18.34 45.52,45.52 0 0 0 16.25,11.45 52.69,52.69 0 0 0 20.54,3.93 z"
       id="path81"
       inkscape:connector-curvature="0"
       style="fill:#ffffff" />
    <path
       class="cls-3"
       d="M 2727.8,695 H 2696 a 14.65,14.65 0 0 1 -8.79,-2.49 12.89,12.89 0 0 1 -4.79,-6.36 L 2672,655.32 h -67.16 l -10.43,30.79 A 14.06,14.06 0 0 1 2581.1,695 h -32 l 68.37,-176.63 h 42 z m -113.48,-67.52 h 48.25 l -16.25,-48.37 -3.7,-10.85 q -2.13,-6.24 -4.18,-13.52 -1.93,7.39 -4,13.7 -2.07,6.31 -3.88,10.91 z"
       id="path83"
       inkscape:connector-curvature="0"
       style="fill:#ffffff" />
    <path
       class="cls-3"
       d="m 2870.37,518.33 v 32.49 h -49.7 V 695 h -41 V 550.82 H 2730 v -32.49 z"
       id="path85"
       inkscape:connector-curvature="0"
       style="fill:#ffffff" />
    <path
       class="cls-3"
       d="m 2951.59,695 h -41.22 V 518.33 h 41.22 z"
       id="path87"
       inkscape:connector-curvature="0"
       style="fill:#ffffff" />
    <path
       class="cls-3"
       d="m 2989.17,518.33 h 33 a 14.72,14.72 0 0 1 8.73,2.42 13.32,13.32 0 0 1 4.85,6.43 l 34.19,94.56 q 2.31,6.18 4.67,13.46 2.36,7.28 4.42,15.27 1.7,-8 3.94,-15.27 2.24,-7.27 4.42,-13.46 l 33.94,-94.56 a 14.06,14.06 0 0 1 13.34,-8.85 h 33.22 L 3097.06,695 H 3060 Z"
       id="path89"
       inkscape:connector-curvature="0"
       style="fill:#ffffff" />
    <path
       class="cls-3"
       d="m 3315.52,518.33 v 31.52 H 3243 v 41.22 h 55.52 v 30.31 H 3243 v 42.07 h 72.5 V 695 H 3201.81 V 518.33 Z"
       id="path91"
       inkscape:connector-curvature="0"
       style="fill:#ffffff" />
    <path
       class="cls-3"
       d="m 3499.55,631 a 91.81,91.81 0 0 1 -3.7,26.91 57,57 0 0 1 -11.15,20.79 50.14,50.14 0 0 1 -18.7,13.41 q -11.28,4.78 -26.55,4.79 a 125.55,125.55 0 0 1 -13.64,-0.73 116.21,116.21 0 0 1 -14,-2.42 l 2.18,-23.88 a 7.15,7.15 0 0 1 2.49,-5.09 9.25,9.25 0 0 1 6.24,-1.94 24.13,24.13 0 0 1 5.09,0.67 34.55,34.55 0 0 0 7.27,0.67 29.7,29.7 0 0 0 10.37,-1.64 16,16 0 0 0 7.33,-5.46 26.31,26.31 0 0 0 4.36,-10 68,68 0 0 0 1.45,-15.28 V 518.33 h 41 V 631 Z"
       id="path93"
       inkscape:connector-curvature="0"
       style="fill:#ffffff" />
    <path
       class="cls-3"
       d="m 3722.37,606.59 a 94.81,94.81 0 0 1 -6.61,35.64 84.23,84.23 0 0 1 -47.52,47.77 105.48,105.48 0 0 1 -75.1,0 84.28,84.28 0 0 1 -47.71,-47.76 99.39,99.39 0 0 1 0,-71.28 84.73,84.73 0 0 1 18.67,-28.61 86.2,86.2 0 0 1 29,-19 98.7,98.7 0 0 1 37.58,-6.91 97.5,97.5 0 0 1 37.52,7 86.62,86.62 0 0 1 28.91,19.09 85.33,85.33 0 0 1 18.61,28.61 94.48,94.48 0 0 1 6.65,35.45 z m -41.95,0 A 76.46,76.46 0 0 0 3677,583 a 50,50 0 0 0 -9.76,-17.76 42,42 0 0 0 -15.58,-11.15 53.52,53.52 0 0 0 -21,-3.88 54.39,54.39 0 0 0 -21.16,3.88 42,42 0 0 0 -15.64,11.15 50,50 0 0 0 -9.76,17.76 84.12,84.12 0 0 0 0,47.28 50,50 0 0 0 9.76,17.76 41.32,41.32 0 0 0 15.64,11.09 55.26,55.26 0 0 0 21.16,3.82 54.26,54.26 0 0 0 21,-3.82 41.6,41.6 0 0 0 15.58,-11.09 50,50 0 0 0 9.76,-17.76 76.88,76.88 0 0 0 3.42,-23.69 z"
       id="path95"
       inkscape:connector-curvature="0"
       style="fill:#ffffff" />
    <path
       class="cls-3"
       d="m 3834.87,662.6 a 37.63,37.63 0 0 0 14.73,-2.73 29.77,29.77 0 0 0 11,-7.82 34.61,34.61 0 0 0 6.85,-12.43 54.17,54.17 0 0 0 2.36,-16.67 V 518.33 h 41 V 623 a 81.8,81.8 0 0 1 -5.27,29.82 67.1,67.1 0 0 1 -15.09,23.4 68.18,68.18 0 0 1 -23.88,15.28 86.85,86.85 0 0 1 -31.64,5.46 q -17.7,0 -31.76,-5.46 a 68,68 0 0 1 -23.88,-15.28 66,66 0 0 1 -15,-23.4 A 82.43,82.43 0 0 1 3759,623 V 518.33 h 41 v 104.5 a 54.47,54.47 0 0 0 2.36,16.67 35.31,35.31 0 0 0 6.85,12.49 29.46,29.46 0 0 0 11,7.88 37.46,37.46 0 0 0 14.66,2.73 z"
       id="path97"
       inkscape:connector-curvature="0"
       style="fill:#ffffff" />
    <path
       class="cls-3"
       d="M 3997.8,629.62 V 695 h -41 V 518.33 h 57.46 q 19.16,0 32.67,3.94 13.51,3.94 22.06,11 a 41.54,41.54 0 0 1 12.43,16.61 55,55 0 0 1 3.88,20.85 56.24,56.24 0 0 1 -2.3,16.27 49.28,49.28 0 0 1 -6.85,14.12 53.08,53.08 0 0 1 -11.15,11.53 59.48,59.48 0 0 1 -15.21,8.36 38.91,38.91 0 0 1 7.7,5.09 30.43,30.43 0 0 1 6.24,7.4 l 37.6,61.5 h -37.1 q -10.3,0 -14.79,-7.76 l -29.34,-51.28 a 12.34,12.34 0 0 0 -4.55,-4.85 15.2,15.2 0 0 0 -7.33,-1.46 h -10.42 z m 0,-28.25 h 16.49 a 42.33,42.33 0 0 0 14.25,-2.12 25.67,25.67 0 0 0 9.64,-5.88 22.48,22.48 0 0 0 5.46,-8.79 33.75,33.75 0 0 0 1.7,-10.85 q 0,-11.64 -7.58,-18.18 -7.58,-6.54 -23.46,-6.55 h -16.49 v 52.37 z"
       id="path99"
       inkscape:connector-curvature="0"
       style="fill:#ffffff" />
    <path
       class="cls-3"
       d="m 4163.52,518.57 a 11.54,11.54 0 0 1 3.27,0.91 11,11 0 0 1 2.79,1.88 32.12,32.12 0 0 1 3,3.27 l 83.89,106.08 c -0.32,-3.39 -0.57,-6.69 -0.73,-9.88 -0.16,-3.19 -0.24,-6.2 -0.24,-9 v -93.5 h 36.13 V 695 h -21.34 a 19.65,19.65 0 0 1 -8,-1.46 17.17,17.17 0 0 1 -6.3,-5.33 L 4172.7,582.98 q 0.36,4.6 0.61,9 0.25,4.4 0.24,8.3 V 695 h -36.13 V 518.33 H 4159 a 35.16,35.16 0 0 1 4.52,0.24 z"
       id="path101"
       inkscape:connector-curvature="0"
       style="fill:#ffffff" />
    <path
       class="cls-3"
       d="m 4504.54,695 h -31.76 a 14.65,14.65 0 0 1 -8.79,-2.49 12.89,12.89 0 0 1 -4.79,-6.36 l -10.43,-30.79 h -67.16 l -10.43,30.79 a 14.06,14.06 0 0 1 -13.34,8.85 h -32 l 68.37,-176.63 h 41.95 z m -113.47,-67.52 h 48.25 l -16.25,-48.37 -3.7,-10.85 q -2.13,-6.24 -4.18,-13.52 -1.94,7.39 -4,13.7 -2.06,6.31 -3.88,10.91 z"
       id="path103"
       inkscape:connector-curvature="0"
       style="fill:#ffffff" />
    <path
       class="cls-3"
       d="m 4579.22,662.23 h 65.46 V 695 H 4538.24 V 518.33 h 41 z"
       id="path105"
       inkscape:connector-curvature="0"
       style="fill:#ffffff" />
    <path
       class="cls-3"
       d="m 4728.33,695 h -41.22 V 518.33 h 41.22 z"
       id="path107"
       inkscape:connector-curvature="0"
       style="fill:#ffffff" />
    <path
       class="cls-3"
       d="m 4878.9,554.21 a 15.38,15.38 0 0 1 -3.82,4.36 8.53,8.53 0 0 1 -5.15,1.46 12.62,12.62 0 0 1 -6,-1.76 c -2.14,-1.17 -4.57,-2.49 -7.27,-3.94 a 60.92,60.92 0 0 0 -9.27,-3.94 37.2,37.2 0 0 0 -11.88,-1.76 q -11.52,0 -17.15,4.91 -5.63,4.91 -5.64,13.28 a 12.23,12.23 0 0 0 3.39,8.85 29.31,29.31 0 0 0 8.91,6.06 96,96 0 0 0 12.61,4.67 q 7.09,2.13 14.49,4.73 a 130.91,130.91 0 0 1 14.49,6.12 48.17,48.17 0 0 1 12.61,9 41.76,41.76 0 0 1 8.91,13.28 q 3.39,7.82 3.39,18.85 a 61.55,61.55 0 0 1 -4.24,22.91 53.71,53.71 0 0 1 -12.3,18.61 57.21,57.21 0 0 1 -19.88,12.49 74.39,74.39 0 0 1 -26.85,4.55 86.17,86.17 0 0 1 -16.79,-1.7 99.79,99.79 0 0 1 -16.55,-4.79 95.58,95.58 0 0 1 -15,-7.33 63.48,63.48 0 0 1 -12.24,-9.46 l 12.12,-19.15 a 9.91,9.91 0 0 1 3.76,-3.52 10.63,10.63 0 0 1 5.21,-1.33 13.83,13.83 0 0 1 7.33,2.3 q 3.69,2.31 8.37,5.09 a 67.48,67.48 0 0 0 10.73,5.09 40.14,40.14 0 0 0 14.31,2.3 q 11.14,0 17.34,-4.91 6.2,-4.91 6.18,-15.58 a 14.74,14.74 0 0 0 -3.39,-10.06 26.14,26.14 0 0 0 -8.91,-6.42 82.57,82.57 0 0 0 -12.55,-4.49 q -7,-1.94 -14.43,-4.3 a 106.67,106.67 0 0 1 -14.43,-5.82 45.43,45.43 0 0 1 -12.55,-9.09 42.43,42.43 0 0 1 -8.91,-14.06 q -3.39,-8.43 -3.39,-20.79 a 49.31,49.31 0 0 1 4,-19.4 50.18,50.18 0 0 1 11.76,-16.85 57.85,57.85 0 0 1 19,-11.82 70.29,70.29 0 0 1 25.78,-4.45 96.7,96.7 0 0 1 15.82,1.27 83.15,83.15 0 0 1 14.61,3.76 80.62,80.62 0 0 1 12.91,5.94 59.31,59.31 0 0 1 10.73,7.82 z"
       id="path109"
       inkscape:connector-curvature="0"
       style="fill:#ffffff" />
    <path
       class="cls-3"
       d="m 5059.53,518.33 v 32.49 h -49.7 V 695 h -41 V 550.82 h -49.7 v -32.49 z"
       id="path111"
       inkscape:connector-curvature="0"
       style="fill:#ffffff" />
    <path
       class="cls-3"
       d="m 5194.34,554.21 a 15.38,15.38 0 0 1 -3.82,4.36 8.53,8.53 0 0 1 -5.15,1.46 12.62,12.62 0 0 1 -6,-1.76 c -2.14,-1.17 -4.57,-2.49 -7.27,-3.94 a 60.92,60.92 0 0 0 -9.27,-3.94 37.2,37.2 0 0 0 -11.88,-1.76 q -11.52,0 -17.15,4.91 -5.63,4.91 -5.64,13.28 a 12.23,12.23 0 0 0 3.39,8.85 29.31,29.31 0 0 0 8.91,6.06 96,96 0 0 0 12.61,4.67 q 7.1,2.13 14.49,4.73 a 130.91,130.91 0 0 1 14.49,6.12 48.17,48.17 0 0 1 12.61,9 41.76,41.76 0 0 1 8.91,13.28 q 3.39,7.82 3.39,18.85 a 61.55,61.55 0 0 1 -4.24,22.91 53.71,53.71 0 0 1 -12.3,18.61 57.21,57.21 0 0 1 -19.88,12.49 74.39,74.39 0 0 1 -26.85,4.55 86.17,86.17 0 0 1 -16.79,-1.7 99.79,99.79 0 0 1 -16.55,-4.79 95.58,95.58 0 0 1 -15,-7.33 63.48,63.48 0 0 1 -12.24,-9.46 l 12.12,-19.15 a 9.91,9.91 0 0 1 3.77,-3.51 10.63,10.63 0 0 1 5.21,-1.33 13.83,13.83 0 0 1 7.33,2.3 q 3.69,2.31 8.37,5.09 a 67.48,67.48 0 0 0 10.73,5.09 40.14,40.14 0 0 0 14.31,2.3 q 11.15,0 17.34,-4.91 6.19,-4.91 6.18,-15.58 a 14.74,14.74 0 0 0 -3.39,-10.06 26.14,26.14 0 0 0 -8.91,-6.42 82.57,82.57 0 0 0 -12.55,-4.49 q -7,-1.94 -14.43,-4.3 a 106.67,106.67 0 0 1 -14.43,-5.82 45.43,45.43 0 0 1 -12.55,-9.09 42.43,42.43 0 0 1 -8.91,-14.06 q -3.39,-8.43 -3.39,-20.79 a 49.31,49.31 0 0 1 4,-19.4 50.18,50.18 0 0 1 11.76,-16.85 57.85,57.85 0 0 1 19,-11.82 70.29,70.29 0 0 1 25.82,-4.42 96.7,96.7 0 0 1 15.82,1.27 83.15,83.15 0 0 1 14.61,3.76 80.62,80.62 0 0 1 12.91,5.94 59.31,59.31 0 0 1 10.73,7.82 z"
       id="path113"
       inkscape:connector-curvature="0"
       style="fill:#ffffff" />
  </g>
</svg>
